<svg id="visual" viewBox="0 0 960 540" width="960" height="540" xmlns="http://www.w3.org/2000/svg" xmlns:xlink="http://www.w3.org/1999/xlink" version="1.1"><rect x="0" y="0" width="960" height="540" fill="#101316"></rect><path d="M0 271L22.8 258.2C45.7 245.3 91.3 219.7 137 212.5C182.7 205.3 228.3 216.7 274 217.3C319.7 218 365.3 208 411.2 205.2C457 202.3 503 206.7 548.8 218.2C594.7 229.7 640.3 248.3 686 248.8C731.7 249.3 777.3 231.7 823 223C868.7 214.3 914.3 214.7 937.2 214.8L960 215L960 0L937.2 0C914.3 0 868.7 0 823 0C777.3 0 731.7 0 686 0C640.3 0 594.7 0 548.8 0C503 0 457 0 411.2 0C365.3 0 319.7 0 274 0C228.3 0 182.7 0 137 0C91.3 0 45.7 0 22.8 0L0 0Z" fill="#2e5ea0"></path><path d="M0 167L22.8 177.2C45.7 187.3 91.3 207.7 137 210.5C182.7 213.3 228.3 198.7 274 190.8C319.7 183 365.3 182 411.2 181.5C457 181 503 181 548.8 181.2C594.7 181.3 640.3 181.7 686 176.2C731.7 170.7 777.3 159.3 823 157.5C868.7 155.7 914.3 163.3 937.2 167.2L960 171L960 0L937.2 0C914.3 0 868.7 0 823 0C777.3 0 731.7 0 686 0C640.3 0 594.7 0 548.8 0C503 0 457 0 411.2 0C365.3 0 319.7 0 274 0C228.3 0 182.7 0 137 0C91.3 0 45.7 0 22.8 0L0 0Z" fill="#215198"></path><path d="M0 122L22.8 130C45.7 138 91.3 154 137 156.3C182.7 158.7 228.3 147.3 274 152.2C319.7 157 365.3 178 411.2 186.2C457 194.3 503 189.7 548.8 181.2C594.7 172.7 640.3 160.3 686 159C731.7 157.7 777.3 167.3 823 170.2C868.7 173 914.3 169 937.2 167L960 165L960 0L937.2 0C914.3 0 868.7 0 823 0C777.3 0 731.7 0 686 0C640.3 0 594.7 0 548.8 0C503 0 457 0 411.2 0C365.3 0 319.7 0 274 0C228.3 0 182.7 0 137 0C91.3 0 45.7 0 22.8 0L0 0Z" fill="#154390"></path><path d="M0 145L22.8 142.2C45.7 139.3 91.3 133.7 137 134C182.7 134.3 228.3 140.7 274 140.5C319.7 140.3 365.3 133.7 411.2 129.8C457 126 503 125 548.8 128.3C594.7 131.7 640.3 139.3 686 144.5C731.7 149.7 777.3 152.3 823 151.8C868.7 151.3 914.3 147.7 937.2 145.8L960 144L960 0L937.2 0C914.3 0 868.7 0 823 0C777.3 0 731.7 0 686 0C640.3 0 594.7 0 548.8 0C503 0 457 0 411.2 0C365.3 0 319.7 0 274 0C228.3 0 182.7 0 137 0C91.3 0 45.7 0 22.8 0L0 0Z" fill="#0a3687"></path><path d="M0 123L22.8 123C45.7 123 91.3 123 137 117.7C182.7 112.3 228.3 101.7 274 94C319.7 86.3 365.3 81.7 411.2 82.7C457 83.7 503 90.3 548.8 91.8C594.7 93.3 640.3 89.7 686 89.2C731.7 88.7 777.3 91.3 823 96.2C868.7 101 914.3 108 937.2 111.5L960 115L960 0L937.2 0C914.3 0 868.7 0 823 0C777.3 0 731.7 0 686 0C640.3 0 594.7 0 548.8 0C503 0 457 0 411.2 0C365.3 0 319.7 0 274 0C228.3 0 182.7 0 137 0C91.3 0 45.7 0 22.8 0L0 0Z" fill="#03287d"></path><path d="M0 47L22.8 47.8C45.7 48.7 91.3 50.3 137 54.2C182.7 58 228.3 64 274 66.8C319.7 69.7 365.3 69.3 411.2 66.8C457 64.3 503 59.7 548.8 63.7C594.7 67.7 640.3 80.3 686 85.8C731.7 91.3 777.3 89.7 823 84.2C868.7 78.7 914.3 69.3 937.2 64.7L960 60L960 0L937.2 0C914.3 0 868.7 0 823 0C777.3 0 731.7 0 686 0C640.3 0 594.7 0 548.8 0C503 0 457 0 411.2 0C365.3 0 319.7 0 274 0C228.3 0 182.7 0 137 0C91.3 0 45.7 0 22.8 0L0 0Z" fill="#021972"></path><path d="M0 20L22.8 20.3C45.7 20.7 91.3 21.3 137 25.3C182.7 29.3 228.3 36.7 274 37.8C319.7 39 365.3 34 411.2 34C457 34 503 39 548.8 38.7C594.7 38.3 640.3 32.7 686 33C731.7 33.3 777.3 39.7 823 42.3C868.7 45 914.3 44 937.2 43.5L960 43L960 0L937.2 0C914.3 0 868.7 0 823 0C777.3 0 731.7 0 686 0C640.3 0 594.7 0 548.8 0C503 0 457 0 411.2 0C365.3 0 319.7 0 274 0C228.3 0 182.7 0 137 0C91.3 0 45.7 0 22.8 0L0 0Z" fill="#040767"></path></svg>